<svg width="100%" xmlns="http://www.w3.org/2000/svg" x="0px" y="0px" viewBox="0 0 512 512" style="enable-background:new 0 0 512 512;">
    <path style="fill:#FFDE33;" d="M484.397,115.311l-64.334,55.207L330.574,51.2c-7.345-9.795-22.706-8.57-28.271,2.56L256,146.365  l-43.519,87.04l-83.812-83.812c-7.236-7.346-19.256-6.233-25.266,1.892L3.228,287.165C1.113,289.948,0,293.51,0,297.071v198.233  C0,504.543,7.456,512,16.696,512h478.609c9.239,0,16.696-7.457,16.696-16.696V128C512,113.753,495.193,106.073,484.397,115.311z"/>
    <path style="fill:#FFBC33;" d="M512,128v367.304c0,9.238-7.456,16.696-16.696,16.696H256V146.365l46.301-92.605  c5.565-11.13,20.926-12.355,28.271-2.56l89.489,119.318l64.334-55.207C495.193,106.073,512,113.753,512,128z"/>
    <path style="fill:#50B9FF;" d="M484.397,282.268l-64.334,55.207l-89.489-119.318c-7.456-9.906-22.706-8.57-28.271,2.56L256,313.322  l-43.519,87.04l-83.812-83.812c-7.346-7.346-19.256-6.122-25.266,1.892L3.228,454.122C1.113,456.904,0,460.466,0,464.028v31.277  C0,504.543,7.456,512,16.696,512h478.609c9.239,0,16.696-7.457,16.696-16.696V294.957C512,280.71,495.193,273.03,484.397,282.268z"/>
    <path style="fill:#48A7E6;" d="M512,294.957v200.348c0,9.238-7.456,16.696-16.696,16.696H256V313.322l46.301-92.604  c5.565-11.13,20.815-12.466,28.271-2.56l89.489,119.318l64.334-55.207C495.193,273.03,512,280.71,512,294.957z"/>
</svg>