<svg  width="100%" viewBox="0 0 512 512" fill="none" xmlns="http://www.w3.org/2000/svg">
    <path d="M95.3911 507H31.2177C22.355 507 15.1739 499.819 15.1739 490.956V351.913C15.1739 325.373 36.7643 303.783 63.3044 303.783C89.8445 303.783 111.435 325.373 111.435 351.913V490.957C111.435 499.819 104.254 507 95.3911 507Z" fill="#EC7838"/>
    <path d="M480.435 507H416.261C407.398 507 400.217 499.819 400.217 490.956V63.1305C400.218 36.5903 421.808 15 448.348 15C474.888 15 496.479 36.5903 496.479 63.1305V490.956C496.479 499.819 489.298 507 480.435 507Z" fill="#FFDE33"/>
    <path d="M95.3911 507C104.254 507 111.435 499.819 111.435 490.956V351.913C111.435 325.373 89.8445 303.783 63.3044 303.783V507H95.3911Z" fill="#DB632C"/>
    <path d="M223.74 506.641H159.565C150.703 506.641 143.522 499.46 143.522 490.597V137.641C143.522 111.101 165.112 89.5104 191.652 89.5104C218.192 89.5104 239.783 111.101 239.783 137.641V490.597C239.783 499.46 232.601 506.641 223.74 506.641Z" fill="#50B9FF"/>
    <path d="M352.087 504.574H287.913C279.05 504.574 271.869 497.393 271.869 488.53V199.747C271.869 173.207 293.46 151.617 320 151.617C346.54 151.617 368.13 173.207 368.13 199.747V488.53C368.131 497.393 360.95 504.574 352.087 504.574Z" fill="#7BCC29"/>
    <path d="M223.74 505.607C232.602 505.607 239.784 498.426 239.784 489.564V136.607C239.784 110.067 218.193 88.4768 191.653 88.4768V505.607H223.74Z" fill="#48A7E6"/>
    <path d="M352.087 503.54C360.95 503.54 368.131 496.359 368.131 487.496V198.713C368.131 172.173 346.541 150.583 320.001 150.583V503.54H352.087Z" fill="#6EB825"/>
    <path d="M480.435 507C489.298 507 496.479 499.819 496.479 490.956V63.1305C496.479 36.5903 474.888 15 448.348 15V507H480.435Z" fill="#FFBC33"/>
</svg>