<svg width="100%" viewBox="0 0 512 512" fill="none" xmlns="http://www.w3.org/2000/svg">
    <path d="M108.466 440.578C72.7683 440.578 43.7285 411.811 43.7285 376.448C43.7285 341.085 72.7683 312.318 108.466 312.318C144.163 312.318 173.203 341.085 173.203 376.448C173.203 411.811 144.163 440.578 108.466 440.578Z" fill="#7BCC29"/>
    <path d="M173.203 376.448C173.203 341.085 144.163 312.318 108.466 312.318V440.578C144.163 440.578 173.203 411.811 173.203 376.448Z" fill="#6EB825"/>
    <path d="M258.002 461.566C210.405 461.566 171.686 423.211 171.686 376.059C171.686 328.906 210.404 290.552 258.002 290.552C305.601 290.552 344.319 328.906 344.319 376.059C344.319 423.211 305.6 461.566 258.002 461.566Z" fill="#EC7838"/>
    <path d="M344.319 376.059C344.319 328.908 305.601 290.552 258.002 290.552V461.565C305.6 461.566 344.319 423.21 344.319 376.059Z" fill="#DB632C"/>
    <path d="M154.996 312.541C80.812 312.541 20.4637 252.758 20.4637 179.27C20.4637 105.782 80.812 46 154.996 46C229.179 46 289.528 105.782 289.528 179.27C289.528 252.758 229.179 312.541 154.996 312.541Z" fill="#4DA6FF"/>
    <path d="M289.528 179.27C289.528 105.782 229.18 46 154.996 46V312.541C229.18 312.541 289.528 252.758 289.528 179.27Z" fill="#4596E6"/>
    <path d="M392.028 342.991C332.532 342.991 284.133 295.046 284.133 236.107C284.133 177.169 332.532 129.224 392.028 129.224C451.524 129.224 499.923 177.169 499.923 236.107C499.923 295.046 451.524 342.991 392.028 342.991Z" fill="#FFDE33"/>
    <path d="M499.922 236.107C499.922 177.169 451.524 129.224 392.028 129.224V342.992C451.524 342.991 499.922 295.046 499.922 236.107Z" fill="#FFBC33"/>
</svg>