<svg width="100%" xmlns="http://www.w3.org/2000/svg" x="0px" y="0px" viewBox="0 0 512 512" style="enable-background:new 0 0 512 512;">
    <path d="M162.06,321.446c-4.272,0-8.544-1.631-11.804-4.892c-6.521-6.516-6.521-17.092,0-23.609  c6.521-6.521,17.152-6.576,23.663-0.055c6.521,6.516,6.576,17.038,0.055,23.554l-0.109,0.109  C170.603,319.815,166.331,321.446,162.06,321.446z"/>
    <path d="M46.413,388.119h-0.109c-9.223,0-16.696-7.473-16.696-16.696c0-9.223,7.473-16.696,16.696-16.696s16.75,7.473,16.75,16.696  C63.054,380.646,55.635,388.119,46.413,388.119z"/>
    <path d="M349.858,321.418c-4.24,0-8.478-1.614-11.723-4.864l-0.109-0.109c-6.521-6.516-6.521-17.092,0-23.609  c6.521-6.521,17.087-6.521,23.609,0c6.521,6.516,6.576,17.146,0.055,23.663C358.419,319.777,354.136,321.418,349.858,321.418z"/>
    <path d="M465.695,388.119h-0.109c-9.223,0-16.696-7.473-16.696-16.696c0-9.223,7.473-16.696,16.696-16.696s16.75,7.473,16.75,16.696  C482.336,380.646,474.919,388.119,465.695,388.119z"/>
    <path style="fill:#6EB825;" d="M345.055,215.707c-5.505,0-10.876-2.723-14.054-7.669c-16.533-25.722-44.571-41.081-75-41.081  c-9.223,0-16.696-7.473-16.696-16.696V16.696C239.304,7.473,246.777,0,256,0c89.055,0,173.006,47.359,219.087,123.592  c2.321,3.837,3,8.451,1.88,12.799c-1.12,4.342-3.94,8.054-7.826,10.299l-115.755,66.783  C350.761,214.983,347.892,215.707,345.055,215.707z"/>
    <path style="fill:#FFBC33;" d="M330.712,207.476c0.107,0.18,0.169,0.38,0.283,0.557c9.19,14.316,14.049,30.903,14.049,47.968  c0,14.354-3.241,27.975-9.634,40.503c-4.145,8.122-1.704,18.156,6.194,22.709l115.646,66.674c2.554,1.478,5.435,2.234,8.337,2.234  c1.5,0,3-0.201,4.473-0.609c4.31-1.201,7.962-4.082,10.131-8.001C501,341.935,512,299.223,512,256  c0-46.529-12.641-92.064-36.538-131.755L330.712,207.476z"/>
    <path style="fill:#DB632C;" d="M480.631,378.449c-1.204-0.011-2.022-0.014-2.022-0.014l-142.951-82.197  c-0.159,0.266-0.365,0.496-0.51,0.774c-15.474,29.589-45.738,47.982-79.01,48.032c-9.181,0.013-16.833,6.915-16.833,16.097v134.164  c0,9.257,7.57,16.7,16.827,16.695c93.175-0.048,178.967-50.741,223.974-132.33C480.325,379.274,480.447,378.854,480.631,378.449z"/>
    <path style="fill:#50B9FF;" d="M256,345.043c-33.326,0-63.653-18.402-79.146-48.032c-2.109-4.027-5.767-7.022-10.131-8.293  c-4.37-1.261-9.049-0.696-13,1.571L38.076,356.962c-7.88,4.538-10.674,14.549-6.288,22.516C76.788,461.217,162.701,512,256,512  V345.043z"/>
    <path style="fill:#FFBC33;" d="M32.466,380.284l0.925-1.849l143.085-82.274c-6.283-12.439-9.52-25.931-9.52-40.161  c0-17.065,4.858-33.652,14.049-47.968c2.468-3.842,3.25-8.527,2.174-12.962c-1.076-4.44-3.923-8.239-7.88-10.522L59.543,117.766  c-7.869-4.555-17.913-1.957-22.619,5.805C12.767,163.418,0,209.212,0,256c0,43.223,11,85.935,31.81,123.511  C31.977,379.813,32.283,379.994,32.466,380.284z"/>
    <path style="fill:#EC7838;" d="M181.376,207.526c16.578-25.399,44.407-40.569,74.624-40.569V0  C166.945,0,82.994,47.359,36.913,123.592c-0.131,0.217-0.203,0.46-0.324,0.681L181.376,207.526z"/>
</svg>