<svg width="100%" xmlns="http://www.w3.org/2000/svg" x="0px" y="0px" viewBox="0 0 512 512" style="enable-background:new 0 0 512 512;">
    <path style="fill:#E6EEFF;" d="M504.131,8.229C501.13,3.131,495.653,0,489.739,0H22.261C16.349,0,10.87,3.131,7.869,8.229  S4.794,19.631,7.664,24.804l43.316,75.37l19.19,33.391h371.659l19.191-33.391l43.316-75.37  C507.206,19.631,507.131,13.326,504.131,8.229z"/>
    <path style="fill:#DAE2F2;" d="M489.739,0h-233.74v133.565h185.83l19.191-33.391l43.316-75.37  c2.869-5.173,2.794-11.479-0.207-16.577C501.129,3.13,495.653,0,489.739,0z"/>
    <polygon style="fill:#FFDE33;" points="50.98,100.174 70.17,133.565 108.552,200.348 127.742,233.739 384.257,233.739   403.447,200.348 441.83,133.565 461.021,100.174 "/>
    <polygon style="fill:#FFBC33;" points="255.999,233.739 384.257,233.739 403.447,200.348 441.83,133.565 461.021,100.174   255.999,100.174 "/>
    <polygon style="fill:#7BCC29;" points="108.552,200.348 127.742,233.739 172.521,311.652 172.521,345.043 339.477,345.043   339.477,311.652 384.257,233.739 403.447,200.348 "/>
    <polygon style="fill:#6EB825;" points="255.999,345.043 339.477,345.043 339.477,311.652 384.257,233.739 403.447,200.348   255.999,200.348 "/>
    <rect x="172.522" y="311.652" style="fill:#4DA6FF;" width="166.957" height="133.565"/>
    <rect x="256" y="311.652" style="fill:#4596E6;" width="83.478" height="133.565"/>
    <path style="fill:#EC7838;" d="M172.522,411.826v83.478c0,9.22,7.474,16.696,16.696,16.696h133.565  c9.222,0,16.696-7.475,16.696-16.696v-83.478H172.522z"/>
    <path style="fill:#DB632C;" d="M255.999,512h66.784c9.222,0,16.696-7.475,16.696-16.696v-83.478h-83.479V512z"/>
</svg>