<svg width="100%" viewBox="0 0 512 512" fill="none" xmlns="http://www.w3.org/2000/svg">
    <rect x="404.768" y="355.256" width="99.5123" height="98.4187" fill="#D35D1A"/>
    <rect x="305.256" y="355.256" width="99.5123" height="98.4187" fill="#FFBB95"/>
    <rect x="205.744" y="355.256" width="99.5123" height="98.4187" fill="#D35D1A"/>
    <rect x="106.232" y="355.256" width="99.5123" height="98.4187" fill="#FFBB95"/>
    <rect x="6.71939" y="355.256" width="99.5123" height="98.4187" fill="#D35D1A"/>
    <rect x="404.768" y="256.837" width="99.5123" height="98.4187" fill="#FFBB95"/>
    <rect x="305.256" y="256.837" width="99.5123" height="98.4187" fill="#D35D1A"/>
    <rect x="205.744" y="256.837" width="99.5123" height="98.4187" fill="#E48C5A"/>
    <rect x="106.232" y="256.837" width="99.5123" height="98.4187" fill="#D35D1A"/>
    <rect x="6.71939" y="256.837" width="99.5123" height="98.4187" fill="#FFBB95"/>
    <rect x="404.768" y="158.419" width="99.5123" height="98.4187" fill="#E48C5A"/>
    <rect x="305.256" y="158.419" width="99.5123" height="98.4187" fill="#733B1C"/>
    <rect x="205.744" y="158.419" width="99.5123" height="98.4187" fill="#D35D1A"/>
    <rect x="106.232" y="158.419" width="99.5123" height="98.4187" fill="#FFBB95"/>
    <rect x="6.71939" y="158.419" width="99.5123" height="98.4187" fill="#EC7430"/>
    <rect x="404.768" y="60" width="99.5123" height="98.4187" fill="#D35D1A"/>
    <rect x="305.256" y="60" width="99.5123" height="98.4187" fill="#FFBB95"/>
    <rect x="205.744" y="60" width="99.5123" height="98.4187" fill="#EC7430"/>
    <rect x="106.232" y="60" width="99.5123" height="98.4187" fill="#D35D1A"/>
    <rect x="6.71939" y="60" width="99.5123" height="98.4187" fill="#E48C5A"/>
</svg>