<svg  width="100%" viewBox="0 0 512 512" fill="none" xmlns="http://www.w3.org/2000/svg">
    <path d="M22.688 240.479C18.797 240.479 14.883 239.126 11.72 236.36C4.77501 230.295 4.05702 219.751 10.122 212.806L86.687 125.11C92.752 118.165 103.307 117.436 110.241 123.512C117.186 129.577 117.904 140.121 111.839 147.066L35.274 234.761C31.97 238.544 27.339 240.479 22.688 240.479Z" fill="#48A7E6"/>
    <path d="M199.447 216.87C194.643 216.87 189.87 214.805 186.567 210.811L133.611 146.724C127.742 139.615 128.741 129.093 135.85 123.219C142.948 117.35 153.481 118.355 159.35 125.453L212.306 189.54C218.175 196.649 217.176 207.171 210.067 213.045C206.958 215.614 203.187 216.87 199.447 216.87Z" fill="#48A7E6"/>
    <path d="M246.643 216.87C242.708 216.87 238.763 215.484 235.588 212.674C228.686 206.56 228.045 196.005 234.153 189.103L320.5 91.625C326.619 84.729 337.163 84.088 344.065 90.196C350.967 96.31 351.608 106.865 345.5 113.767L259.153 211.245C255.85 214.968 251.263 216.87 246.643 216.87Z" fill="#48A7E6"/>
    <path d="M433.186 183.479C428.382 183.479 423.609 181.414 420.306 177.42L367.35 113.333C361.481 106.224 362.48 95.702 369.589 89.828C376.687 83.959 387.208 84.953 393.089 92.062L446.045 156.149C451.914 163.258 450.915 173.78 443.806 179.654C440.696 182.223 436.924 183.479 433.186 183.479Z" fill="#48A7E6"/>
    <path d="M122.872 162.566C95.253 162.566 72.785 140.098 72.785 112.479C72.785 84.86 95.253 62.392 122.872 62.392C150.491 62.392 172.959 84.86 172.959 112.479C172.959 140.098 150.492 162.566 122.872 162.566Z" fill="#50B9FF"/>
    <path d="M223.045 273.87C195.426 273.87 172.958 251.402 172.958 223.783C172.958 196.164 195.426 173.696 223.045 173.696C250.664 173.696 273.132 196.164 273.132 223.783C273.132 251.402 250.665 273.87 223.045 273.87Z" fill="#50B9FF"/>
    <path d="M356.61 129.175C328.991 129.175 306.523 106.707 306.523 79.088C306.523 51.469 328.991 29.001 356.61 29.001C384.229 29.001 406.697 51.469 406.697 79.088C406.697 106.707 384.23 129.175 356.61 129.175Z" fill="#50B9FF"/>
    <path d="M456.783 240.479C429.164 240.479 406.696 218.011 406.696 190.392C406.696 162.773 429.164 140.305 456.783 140.305C484.402 140.305 506.87 162.773 506.87 190.392C506.87 218.011 484.403 240.479 456.783 240.479Z" fill="#50B9FF"/>
    <path d="M22.709 440.826C17.992 440.826 13.307 438.843 10.003 434.978C4.01397 427.967 4.83997 417.429 11.851 411.441L88.416 346.007C95.427 340.018 105.97 340.838 111.959 347.849C117.948 354.86 117.122 365.398 110.111 371.386L33.546 436.82C30.405 439.511 26.546 440.826 22.709 440.826Z" fill="#DB632C"/>
    <path d="M199.426 417.217C195.806 417.217 192.155 416.043 189.089 413.624L136.133 371.798C128.894 366.08 127.666 355.581 133.383 348.347C139.09 341.108 149.59 339.875 156.828 345.591L209.784 387.417C217.023 393.135 218.251 403.634 212.534 410.868C209.241 415.043 204.36 417.217 199.426 417.217Z" fill="#DB632C"/>
    <path d="M246.665 417.217C242.002 417.217 237.371 415.277 234.068 411.489C228.014 404.533 228.731 393.989 235.687 387.935L322.034 312.718C329.002 306.653 339.523 307.398 345.588 314.337C351.642 321.294 350.925 331.837 343.969 337.891L257.622 413.108C254.458 415.863 250.545 417.217 246.665 417.217Z" fill="#DB632C"/>
    <path d="M433.164 383.826C429.544 383.826 425.893 382.652 422.827 380.233L369.871 338.407C362.632 332.689 361.404 322.19 367.121 314.956C372.828 307.722 383.317 306.478 390.566 312.2L443.522 354.026C450.761 359.744 451.989 370.243 446.272 377.477C442.979 381.652 438.099 383.826 433.164 383.826Z" fill="#DB632C"/>
    <path d="M122.872 385.174C95.253 385.174 72.785 362.706 72.785 335.087C72.785 307.468 95.253 285 122.872 285C150.491 285 172.959 307.468 172.959 335.087C172.959 362.706 150.492 385.174 122.872 385.174Z" fill="#EC7838"/>
    <path d="M223.045 474.217C195.426 474.217 172.958 451.749 172.958 424.13C172.958 396.511 195.426 374.043 223.045 374.043C250.664 374.043 273.132 396.511 273.132 424.13C273.132 451.749 250.665 474.217 223.045 474.217Z" fill="#EC7838"/>
    <path d="M356.61 351.782C328.991 351.782 306.523 329.314 306.523 301.695C306.523 274.076 328.991 251.608 356.61 251.608C384.229 251.608 406.697 274.076 406.697 301.695C406.697 329.314 384.23 351.782 356.61 351.782Z" fill="#EC7838"/>
    <path d="M456.783 440.826C429.164 440.826 406.696 418.358 406.696 390.739C406.696 363.12 429.164 340.652 456.783 340.652C484.402 340.652 506.87 363.12 506.87 390.739C506.87 418.358 484.403 440.826 456.783 440.826Z" fill="#EC7838"/>
</svg>