<svg width="100%" viewBox="0 0 512 512" fill="none" xmlns="http://www.w3.org/2000/svg">
    <path d="M340.797 394.593C317.197 394.593 298 375.397 298 351.797C298 328.197 317.197 309 340.797 309C364.397 309 383.593 328.197 383.593 351.797C383.593 375.397 364.396 394.593 340.797 394.593Z" fill="#EC7838"/>
    <path d="M383.593 351.797C383.593 328.197 364.397 309 340.797 309V394.593C364.396 394.593 383.593 375.396 383.593 351.797Z" fill="#DB632C"/>
    <path d="M146.511 237.022C118.107 237.022 95 213.915 95 185.511C95 157.107 118.107 134 146.511 134C174.915 134 198.022 157.107 198.022 185.511C198.022 213.915 174.915 237.022 146.511 237.022Z" fill="#4DA6FF"/>
    <path d="M198.022 185.511C198.022 157.107 174.915 134 146.511 134V237.022C174.915 237.022 198.022 213.915 198.022 185.511Z" fill="#4596E6"/>
    <path d="M416.061 173.123C374.671 173.123 341 139.452 341 98.0614C341 56.6706 374.671 23 416.061 23C457.452 23 491.123 56.6706 491.123 98.0614C491.123 139.452 457.452 173.123 416.061 173.123Z" fill="#FFDE33"/>
    <path d="M491.123 98.0614C491.123 56.6706 457.452 23 416.061 23V173.124C457.452 173.123 491.123 139.452 491.123 98.0614Z" fill="#FFBC33"/>
    <path d="M70.837 483.674C49.4215 483.674 32 466.253 32 444.837C32 423.421 49.4215 406 70.837 406C92.2526 406 109.674 423.421 109.674 444.837C109.674 466.253 92.2526 483.674 70.837 483.674Z" fill="#7BCC29"/>
    <path d="M109.674 444.837C109.674 423.421 92.2525 406 70.837 406V483.674C92.2525 483.674 109.674 466.253 109.674 444.837Z" fill="#6EB825"/>
</svg>