<svg width="100%" viewBox="0 0 512 512" fill="none" xmlns="http://www.w3.org/2000/svg">
    <path d="M344.451 333.028V492.522C344.451 502.685 352.69 510.926 362.854 510.926H436.467C446.63 510.926 454.871 502.687 454.871 492.522V333.028C454.871 322.865 446.631 314.624 436.467 314.624H362.854C352.69 314.624 344.451 322.865 344.451 333.028Z" fill="#EC7838"/>
    <path d="M399.66 510.925H436.466C446.629 510.925 454.87 502.685 454.87 492.521V333.028C454.87 322.865 446.63 314.624 436.466 314.624H399.66V510.925Z" fill="#DB632C"/>
    <path d="M197.225 333.028V492.522C197.225 502.685 205.465 510.926 215.629 510.926H289.242C299.405 510.926 307.646 502.687 307.646 492.522V333.028C307.646 322.865 299.406 314.624 289.242 314.624H215.629C205.465 314.624 197.225 322.865 197.225 333.028Z" fill="#EC7838"/>
    <path d="M252.435 510.925H289.241C299.404 510.925 307.645 502.685 307.645 492.521V333.028C307.645 322.865 299.405 314.624 289.241 314.624H252.435V510.925V510.925Z" fill="#DB632C"/>
    <path d="M50 296.222V492.522C50 502.685 58.2395 510.926 68.4036 510.926H142.017C152.18 510.926 160.42 502.687 160.42 492.522V296.222C160.42 286.059 152.181 277.818 142.017 277.818H68.4025C58.2395 277.818 50 286.058 50 296.222Z" fill="#EC7838"/>
    <path d="M105.21 510.925H142.016C152.179 510.925 160.419 502.685 160.419 492.521V296.222C160.419 286.059 152.18 277.818 142.016 277.818H105.21V510.925Z" fill="#DB632C"/>
    <path d="M160.419 296.222V204.206C160.419 173.762 135.653 148.996 105.21 148.996C74.7659 148.996 50 173.762 50 204.206V296.222H160.419Z" fill="#50B9FF"/>
    <path d="M160.419 296.222V204.206C160.419 173.762 135.653 148.996 105.21 148.996V296.222H160.419Z" fill="#48A7E6"/>
    <path d="M436.466 130.593H362.853C352.69 130.593 344.45 138.832 344.45 148.996V333.029H454.869V148.996C454.87 138.832 446.63 130.593 436.466 130.593Z" fill="#50B9FF"/>
    <path d="M399.66 333.028H454.87V148.996C454.87 138.833 446.63 130.593 436.466 130.593H399.66V333.028Z" fill="#48A7E6"/>
    <path d="M289.241 167.399H215.628C205.465 167.399 197.224 175.638 197.224 185.802V333.028H307.643V185.802C307.645 175.638 299.405 167.399 289.241 167.399Z" fill="#50B9FF"/>
    <path d="M252.435 333.028H307.645V185.802C307.645 175.639 299.405 167.399 289.241 167.399H252.435V333.028V333.028Z" fill="#48A7E6"/>
    <path d="M307.645 185.802V130.593C307.645 100.149 282.879 75.3832 252.435 75.3832C221.991 75.3832 197.225 100.149 197.225 130.593V185.802H307.645Z" fill="#FFDE33"/>
    <path d="M307.645 185.802V130.593C307.645 100.149 282.879 75.3832 252.435 75.3832V185.802H307.645Z" fill="#FFBC33"/>
    <path d="M454.87 148.996V56.9796C454.87 26.5359 430.104 1.76996 399.66 1.76996C369.217 1.76996 344.451 26.5359 344.451 56.9796V148.995H454.87V148.996Z" fill="#FFDE33"/>
    <path d="M454.87 148.996V56.9796C454.87 26.5359 430.104 1.76996 399.66 1.76996V148.995H454.87V148.996Z" fill="#FFBC33"/>
</svg>